<?xml version="1.0" encoding="UTF-8" standalone="no"?>
<!-- Created with Inkscape (http://www.inkscape.org/) -->

<svg
   version="1.1"
   id="svg9"
   width="1024"
   height="1024"
   viewBox="0 0 1024 1024"
   sodipodi:docname="logo.svg"
   inkscape:version="1.2 (dc2aedaf03, 2022-05-15)"
   xmlns:inkscape="http://www.inkscape.org/namespaces/inkscape"
   xmlns:sodipodi="http://sodipodi.sourceforge.net/DTD/sodipodi-0.dtd"
   xmlns="http://www.w3.org/2000/svg"
   xmlns:svg="http://www.w3.org/2000/svg">
  <defs
     id="defs13" />
  <sodipodi:namedview
     id="namedview11"
     pagecolor="#ffffff"
     bordercolor="#000000"
     borderopacity="0.25"
     inkscape:showpageshadow="2"
     inkscape:pageopacity="0.0"
     inkscape:pagecheckerboard="0"
     inkscape:deskcolor="#d1d1d1"
     showgrid="false"
     inkscape:zoom="1"
     inkscape:cx="331"
     inkscape:cy="522"
     inkscape:window-width="2560"
     inkscape:window-height="1334"
     inkscape:window-x="-11"
     inkscape:window-y="-11"
     inkscape:window-maximized="1"
     inkscape:current-layer="g15" />
  <g
     inkscape:groupmode="layer"
     inkscape:label="Image"
     id="g15">
    <path
       style="fill:#000000;stroke-width:1.07963"
       d="M -82.757543,507.01459 V -34.897756 H 481.09055 1044.9386 V 498.54721 1031.9922 h -44.0506 -44.05057 v 8.4673 8.4674 H 437.03992 -82.757543 Z M 920.16823,737.8813 c 2.2847,-3.27355 5.4657,-7.4537 7.069,-9.28923 1.6033,-1.83552 3.1204,-3.9294 3.3714,-4.65306 0.3584,-1.03336 3.7539,-0.92557 15.8204,0.50223 8.4502,0.99989 16.5431,2.2781 17.9842,2.84045 1.4411,0.56236 2.8624,0.78969 3.1584,0.50517 0.296,-0.28451 -4.5409,-6.97881 -10.7487,-14.87623 l -11.2869,-14.35893 4.038,-8.49001 c 5.0759,-10.67247 9.8217,-23.23609 9.0554,-23.97262 -0.3207,-0.30824 -7.1475,2.55803 -15.1706,6.36948 -10.4703,4.97401 -15.0949,6.66898 -16.385,6.00536 -0.9887,-0.50852 -4.236,-3.02734 -7.2164,-5.59738 -6.5375,-5.63754 -20.0766,-15.55594 -21.2345,-15.55594 -0.4576,0 -0.2074,5.12012 0.5561,11.37804 1.7624,14.44612 1.8525,21.43306 0.2762,21.43306 -0.6697,0 -2.6082,1.12455 -4.3077,2.49901 -1.6996,1.37446 -7.574,4.58941 -13.0542,7.14435 -5.4801,2.55494 -9.9841,4.95085 -10.0087,5.32424 -0.025,0.37339 2.0615,1.48415 4.6357,2.46834 2.5742,0.9842 6.1671,2.41869 7.9842,3.18774 1.817,0.76906 6.8934,2.67557 11.2807,4.23669 4.3874,1.56112 8.2792,3.30831 8.6485,3.88265 0.3694,0.57433 1.454,8.23627 2.4103,17.02654 l 1.7387,15.98228 3.6158,-4.02015 c 1.9887,-2.21108 5.4851,-6.69851 7.7697,-9.97208 z M 703.69182,727.84078 c 15.9823,-1.74898 42.73414,-5.81288 44.2879,-6.72782 2.63541,-1.55188 29.20143,-17.43918 38.67836,-44.35767 3.53438,-10.03913 -6.1772,-34.12806 -5.6924,-33.9754 1.03935,0.32729 15.16105,10.71788 19.74985,14.53179 l 3.185,2.64715 -3.3733,11.92382 c -4.3029,15.20922 -4.3209,15.91072 -0.3449,13.3784 7.7277,-4.9217 21.4925,-12.07412 23.2366,-12.07412 2.223,0 10.2003,4.6418 18.6395,10.8459 3.1953,2.34904 6.0442,4.04562 6.3308,3.77016 0.2866,-0.27544 -1.1296,-6.88579 -3.1472,-14.68966 l -3.6682,-14.18885 11.3786,-7.11863 c 6.2583,-3.91525 11.3786,-7.57054 11.3786,-8.12287 0,-1.14606 -4.4174,-1.87344 -17.2007,-2.83228 -4.9176,-0.36886 -10.0362,-1.22196 -11.3746,-1.89579 -2.2263,-1.12081 -9.9717,-15.79397 -12.1001,-22.9228 -0.6826,-2.28643 -1.2679,-1.4233 -4.306,6.35054 -1.9338,4.94812 -4.4542,10.9474 -5.6009,13.33171 l -2.0848,4.33513 -8.5225,0.69237 c -9.6193,0.7815 -22.50657,0.92137 -22.50657,0.24428 28.34364,-25.52846 43.28172,-57.16701 50.31137,-89.51781 1.9433,-9.48799 3.4843,-77.26484 1.7567,-77.26484 -0.5782,0 -3.7947,1.88808 -7.1477,4.19573 -3.3531,2.30766 -9.0089,5.71437 -12.5686,7.57048 -3.5596,1.8561 -7.8001,4.26325 -9.4232,5.34922 -1.7415,1.1652 -3.2236,1.55088 -3.6158,0.94096 -0.7718,-1.20025 0.968,-15.93922 3.3009,-27.96372 0.8878,-4.57584 1.6142,-8.93565 1.6142,-9.6885 0,-0.75283 -4.0473,-3.86402 -8.994,-6.91374 -4.9467,-3.04972 -12.3274,-8.21571 -16.40162,-11.47996 l -7.40762,-5.93501 5.65311,-0.82165 c 3.10922,-0.45191 11.15433,-2.27652 17.87813,-4.0547 l 12.225,-3.23305 4.2151,-14.46769 c 5.3852,-18.48371 5.8919,-19.60891 8.0604,-17.89929 0.9173,0.72311 5.0985,6.31579 9.2916,12.42818 4.1932,6.11239 7.7303,11.22081 7.8603,11.35202 0.6266,0.63257 -2.8424,-29.36299 -4.8016,-41.51706 -2.8101,-17.43363 -6.4027,-30.2356 -11.9094,-42.438 -5.1531,-11.41879 -6.9481,-14.06112 -18.1494,-26.71699 -20.4468,-23.10176 -50.42424,-35.08142 -102.69091,-41.03754 -12.77479,-1.45577 -25.38027,-1.89579 -55.61393,-1.94135 -40.89051,-0.0616 -53.01573,0.44555 -73.86246,3.08949 -57.45996,7.28752 -87.83306,24.0144 -108.63672,59.82774 -5.73897,9.8796 -11.69847,27.97795 -14.6379,44.45375 -4.65012,26.06432 -6.57385,63.35895 -6.57874,127.53992 -0.009,113.68694 5.45483,151.05524 26.92598,184.16409 12.55389,19.3583 37.33957,35.16341 66.28607,42.26869 14.45718,3.5487 41.42566,7.17104 62.59871,8.4081 17.42777,1.01824 93.24973,-0.28132 107.51899,-1.84283 z m -82.63785,-90.72932 c -10.51068,-1.98298 -16.66838,-4.33035 -22.01526,-8.39239 -6.39753,-4.86022 -8.09444,-7.08228 -11.42682,-14.96322 l -2.39409,-5.66191 -0.34823,-107.0129 c -0.33956,-104.35054 -0.29247,-107.25846 1.89309,-116.88275 1.23272,-5.42841 3.35874,-11.4738 4.72448,-13.43418 3.22609,-4.63076 13.84718,-11.47008 21.0403,-13.54864 10.61612,-3.0677 27.04254,-4.23436 39.15824,-2.78114 24.71865,2.96487 36.1176,10.08618 41.63413,26.01023 1.6411,4.73722 1.91112,12.44736 2.25803,64.47614 0.34906,52.35151 0.58515,59.02501 2.06876,58.47785 0.9211,-0.33971 9.6872,-0.63701 19.48023,-0.66066 l 17.80549,-0.043 8.81013,-17.84782 c 8.90922,-18.04856 10.23249,-19.51609 12.20682,-13.53755 0.40085,1.21384 4.10691,8.97496 8.23571,17.24695 l 7.50689,15.03997 19.06326,0.4101 c 10.4848,0.22556 19.6965,0.79276 20.4704,1.26044 1.6007,0.96738 -8.8389,12.23127 -21.4388,23.13154 -4.125,3.56857 -7.802,7.00419 -8.1711,7.63471 -0.36912,0.63053 0.4719,7.57633 1.869,15.43512 1.397,7.85878 2.5663,15.35842 2.5983,16.66583 l 0.058,2.37715 -5.23101,-1.92015 c -2.87706,-1.05608 -9.89783,-4.65798 -15.60174,-8.00422 -7.04251,-4.13153 -11.11393,-5.90478 -12.68653,-5.52543 -2.00916,0.48464 -19.42838,10.24489 -28.66368,16.06069 l -3.1168,1.96275 0.76913,-8.42686 c 0.42303,-4.63478 1.37768,-13.02449 2.12145,-18.64381 l 1.3523,-10.21696 -10.36041,-8.30544 c -5.69823,-4.56799 -11.95465,-10.09153 -13.90315,-12.27453 -1.94851,-2.18299 -3.86688,-3.96908 -4.26305,-3.96908 -0.39617,-4e-5 -0.7203,20.15481 -0.7203,44.78853 0,45.77453 -0.5095,52.88427 -4.39258,61.29548 -4.37163,9.46951 -17.4739,17.59498 -31.9492,19.81355 -8.43767,1.29321 -31.51415,1.27255 -38.44164,-0.0344 z M 391.88802,494.84273 V 260.40213 H 275.70448 159.52093 v 78.32327 l 1,20.32327 55.25317,-1 36.25316,-42 0,256.57385 v 155.57385 l 36.61709,0.29363 c 20.1394,0.1615 51.60807,0.40607 69.93038,0.54348 l 33.31329,0.24984 z m 494.45231,78.88041 11.5473,-6.29347 3.8705,2.22559 c 2.1287,1.22408 6.596,3.655 9.9274,5.40204 3.3313,1.74705 6.6764,3.64246 7.4335,4.21204 1.9972,1.5025 1.7876,-0.53929 -1.3766,-13.40975 -1.5142,-6.15922 -2.7531,-11.37306 -2.7531,-11.58631 0,-0.34231 14.7302,-12.04284 21.9541,-17.43864 l 2.682,-2.00329 -12.5934,-0.73292 c -20.7381,-1.20691 -18.6569,-0.0656 -25.4284,-13.94532 -3.2376,-6.63621 -6.3689,-11.9145 -6.9586,-11.72951 -0.8469,0.26569 -4.7616,10.70237 -8.9004,23.72852 -0.26,0.81831 -2.6392,1.37046 -6.2366,1.44735 -3.1989,0.0684 -10.7702,0.42559 -16.8251,0.79382 l -11.0089,0.66949 4.9701,3.17527 c 12.149,7.76181 20.7819,14.85738 20.8415,17.13017 0.033,1.27175 -0.627,5.55836 -1.4674,9.5258 -2.6176,12.35719 -3.0056,15.1522 -2.101,15.13715 0.4817,-0.008 6.0721,-2.84663 12.4231,-6.30803 z m 40.1729,-138.36182 c 1.1421,-5.72458 2.6846,-10.35563 3.744,-11.24062 0.9909,-0.82778 6.6324,-2.32517 12.5367,-3.32754 5.9042,-1.00237 10.971,-2.18951 11.2594,-2.63808 0.2885,-0.44857 -4.4184,-3.3581 -10.4596,-6.46561 l -10.9842,-5.65001 v -14.07622 c 0,-8.67853 -0.4223,-14.07621 -1.1013,-14.07621 -0.6056,0 -1.1012,0.37487 -1.1012,0.83304 0,0.45817 -3.7598,4.54151 -8.3551,9.07411 -8.3144,8.20098 -8.3769,8.23752 -12.8468,7.51172 -2.4704,-0.40115 -7.9623,-1.86387 -12.2042,-3.2505 -4.2419,-1.38664 -7.9771,-2.26689 -8.3005,-1.95612 -0.3233,0.31078 2.0365,5.32815 5.244,11.14971 3.2076,5.82158 5.5912,11.1627 5.297,11.86915 -0.2942,0.70646 -3.0916,4.55417 -6.2164,8.55047 -3.1247,3.9963 -5.4187,7.51845 -5.0976,7.82701 0.321,0.30857 5.0723,-0.0285 10.5584,-0.74905 7.5528,-0.99199 10.3468,-1.01318 11.5076,-0.0873 0.8432,0.67253 4.1705,5.4266 7.3942,10.56461 6.5972,10.51492 6.2257,10.67214 9.1256,-3.86259 z m -61.5921,-160.8154 c -1.5575,-6.32375 -3.4137,-13.76548 -4.1248,-16.53717 l -1.2931,-5.03944 4.3411,-4.3485 c 2.3877,-2.39168 8.6483,-7.80275 13.9125,-12.02459 l 9.5713,-7.6761 -5.0447,-0.66455 c -2.7745,-0.36549 -7.6284,-0.66454 -10.7863,-0.66454 -3.1579,0 -8.8325,-0.31049 -12.6102,-0.68996 l -6.8685,-0.68998 -3.6765,-7.5128 c -2.022,-4.13205 -5.3813,-11.49786 -7.465,-16.36849 -2.0836,-4.87062 -4.0343,-8.4428 -4.3347,-7.93817 -0.3005,0.50463 -1.9082,5.20412 -3.5728,10.44332 -1.6646,5.23919 -3.665,10.24023 -4.4454,11.11343 -0.7803,0.8732 -2.0416,3.61187 -2.803,6.08593 l -1.3842,4.4983 h -6.8336 c -3.7584,0 -9.2943,0.44852 -12.302,0.99672 -3.0076,0.54818 -8.2787,1.10598 -11.7136,1.23954 -3.4348,0.13356 -6.2452,0.37659 -6.2452,0.54008 0,0.16347 2.1062,1.73505 4.6804,3.49238 2.5742,1.75733 8.7854,6.90033 13.8026,11.42889 l 9.1222,8.23374 -3.9297,15.29322 c -2.1614,8.41128 -3.7885,15.91831 -3.6159,16.68231 0.2009,0.88898 5.7621,-1.88338 15.4468,-7.70048 l 15.133,-9.08957 7.9936,4.84922 c 4.3965,2.66708 10.967,6.9434 14.6012,9.50294 3.6342,2.55954 6.758,4.51609 6.9419,4.34788 0.1839,-0.16821 -0.9399,-5.47982 -2.4974,-11.80356 z"
       id="path177"
       sodipodi:nodetypes="cccccccccccccssssssscsssssssssscssssscssssssscsssssscssssssscsccssssssssscsscsssssssssssscsssscsscssssssssscssscsssssscsssscsscssssssccccccccccccssccscsssssscsssssscscsssssssscsssssssssssssssssccsscssscsssssscsssssscssscssss" />
  </g>
</svg>
